<svg xmlns="http://www.w3.org/2000/svg" width="340.2" height="141.4" viewBox="0 0 340.2 141.4"><path d="M183.3 141v-.7c0-.1-.1-.2-.2-.2h-2.8c-1.6 0-1.8-.4-1.8-1.5v-8c0-.2-.1-.3-.3-.3h-.7c-.2 0-.3.1-.3.3v8c0 2.4 1.6 2.7 3.1 2.7 1.4 0 2.5-.1 2.9-.1 0 0 .1-.1.1-.2M231.8 137.8c0 1.5-.6 2.5-2 2.5s-2-1-2-2.5v-1.1c0-1.5.6-2.5 2-2.5s2 1 2 2.5v1.1zm1.3 0v-1.1c0-2.2-1.1-3.6-3.3-3.6-2.2 0-3.3 1.4-3.3 3.6v1.1c0 2.2 1.1 3.6 3.3 3.6 2.1 0 3.3-1.5 3.3-3.6zM281.3 141v-5.3c0-1.5-.9-2.6-2.6-2.6h-.3c-.9 0-1.5.1-1.9.5-.5-.4-1-.5-1.9-.5h-.3c-1.8 0-2.6 1.1-2.6 2.6v5.3c0 .2.1.3.3.3h.8c.2 0 .3-.1.3-.3v-5.3c0-1.3.6-1.4 1.3-1.4h.3c.9 0 1.3.2 1.3 1v5.8c0 .2.1.3.3.3h.8c.2 0 .3-.1.3-.3v-5.8c0-.8.3-1 1.3-1h.3c.8 0 1.3.2 1.3 1.4v5.3c0 .2.1.3.3.3h.8c-.2 0-.1-.2-.1-.3M189.2 140.1c-.4.1-1.1.1-1.7.1-1.5 0-1.9-1-1.9-2.5v-1c0-1.6.5-2.5 1.9-2.5.6 0 1.3.1 1.7.1v5.8zm1.3.6v-6.9c0-.2 0-.3-.3-.3-.8-.2-1.8-.3-2.7-.3-2.2 0-3.2 1.4-3.2 3.6v1c0 2.2 1 3.6 3.2 3.6.9 0 1.9-.1 2.7-.3.2-.1.3-.2.3-.4zM197.4 137.7c0 1.6-.5 2.5-1.9 2.5-.5 0-1.2 0-1.7-.1v-5.8c.5-.1 1.3-.1 1.7-.1 1.4 0 1.9.9 1.9 2.5v1zm1.3 0v-1.1c0-2.3-1.1-3.6-3.2-3.6-.5 0-1.2 0-1.7.1v-2.7c0-.2-.1-.3-.3-.3h-.7c-.2 0-.3.1-.3.3v10.3c0 .2 0 .3.3.3.9.2 1.8.2 2.7.2 2.2.2 3.2-1.3 3.2-3.5zM205.4 137.8c0 1.5-.6 2.5-2 2.5s-2-1-2-2.5v-1.1c0-1.5.6-2.5 2-2.5s2 1 2 2.5v1.1zm1.3 0v-1.1c0-2.2-1.1-3.6-3.3-3.6-2.2 0-3.3 1.4-3.3 3.6v1.1c0 2.2 1.1 3.6 3.3 3.6 2.2 0 3.3-1.5 3.3-3.6zM212.1 134v-.7c0-.2-.1-.2-.3-.2-1.2 0-2.2 0-3.1.4-.2.1-.3.2-.3.3v7.1c0 .2.1.3.3.3h.8c.2 0 .3-.1.3-.3v-6.6c.6-.1 1-.1 2-.1.2 0 .3-.1.3-.2M218.3 140.1c-.4.1-1.1.1-1.7.1-1.5 0-1.9-1-1.9-2.5v-1c0-1.6.5-2.5 1.9-2.5.6 0 1.3.1 1.7.1v5.8zm1.3.6v-6.9c0-.2 0-.3-.3-.3-.8-.2-1.8-.3-2.7-.3-2.2 0-3.2 1.4-3.2 3.6v1c0 2.2 1 3.6 3.2 3.6.9 0 1.9-.1 2.7-.3.2-.1.3-.2.3-.4zM225.4 141v-.5c0-.1-.1-.2-.3-.2h-1.2c-.8 0-1.1-.1-1.1-1v-5.1h2.3c.2 0 .3-.1.3-.3v-.5c0-.2-.1-.3-.3-.3h-2.3v-1.6c0-.1-.1-.3-.2-.3l-.7.1c-.2 0-.3.1-.3.3v7.6c0 1.6.8 2 2.2 2 .5 0 1.1 0 1.4-.1.2.1.2.1.2-.1M238.4 134v-.7c0-.2-.1-.2-.3-.2-1.2 0-2.2 0-3.1.4-.2.1-.3.2-.3.3v7.1c0 .2.1.3.3.3h.8c.2 0 .3-.1.3-.3v-6.6c.6-.1 1-.1 2-.1.3 0 .3-.1.3-.2M241.4 141v-7.5c0-.2-.1-.3-.3-.3h-.7c-.2 0-.3.1-.3.3v7.5c0 .2.1.3.3.3h.7c.2 0 .3-.2.3-.3m.1-9.4v-1.2c0-.2-.1-.3-.3-.3h-.7c-.2 0-.3.1-.3.3v1.2c0 .2.1.3.3.3h.7c.1 0 .3-.1.3-.3zM248.6 137.8c0 1.5-.6 2.5-2 2.5s-2-1-2-2.5v-1.1c0-1.5.6-2.5 2-2.5s2 1 2 2.5v1.1zm1.3 0v-1.1c0-2.2-1.1-3.6-3.3-3.6s-3.3 1.4-3.3 3.6v1.1c0 2.2 1.1 3.6 3.3 3.6s3.3-1.5 3.3-3.6zM258.3 140.1c-.5 0-1.2.1-1.7.1-1.5 0-1.9-.9-1.9-2.5v-1.1c0-1.6.5-2.5 1.9-2.5.5 0 1.2 0 1.7.1v5.9zm1.3.7v-10.3c0-.2-.1-.3-.3-.3h-.7c-.2 0-.3.1-.3.3v2.7c-.6-.1-1.3-.1-1.7-.1-2.1 0-3.2 1.3-3.2 3.6v1.1c0 2.2 1 3.6 3.2 3.6.9 0 1.8-.1 2.7-.2.2-.1.3-.2.3-.4zM266.5 136.6h-3.9v-.1c0-1.5.7-2.4 2-2.4 1.3.1 1.9.9 1.9 2.5zm1.3.7v-.6c0-2.1-1.1-3.6-3.2-3.6s-3.3 1.5-3.3 3.6v1c0 2.8 1.7 3.6 3.4 3.6 1 0 1.7-.1 2.5-.2.2 0 .3-.1.3-.3v-.5c0-.1-.1-.2-.2-.2h-.1c-.7.1-1.7.2-2.5.2-1.4 0-2.1-.8-2.1-2.5v-.2h4.9c.2 0 .3-.1.3-.3zM288.3 137.8c0 1.5-.6 2.5-2 2.5s-2-1-2-2.5v-1.1c0-1.5.6-2.5 2-2.5s2 1 2 2.5v1.1zm1.2 0v-1.1c0-2.2-1.1-3.6-3.3-3.6-2.2 0-3.3 1.4-3.3 3.6v1.1c0 2.2 1.1 3.6 3.3 3.6 2.2 0 3.3-1.5 3.3-3.6zM296.2 137.7c0 1.6-.5 2.5-1.9 2.5-.5 0-1.2 0-1.7-.1v-5.8c.5-.1 1.3-.1 1.7-.1 1.4 0 1.9.9 1.9 2.5v1zm1.3 0v-1.1c0-2.3-1.1-3.6-3.2-3.6-.5 0-1.2 0-1.7.1v-2.7c0-.2-.1-.3-.3-.3h-.7c-.2 0-.3.1-.3.3v10.3c0 .2 0 .3.3.3.9.2 1.8.2 2.7.2 2.2.2 3.2-1.3 3.2-3.5zM300.7 141v-7.5c0-.2-.1-.3-.3-.3h-.7c-.2 0-.3.1-.3.3v7.5c0 .2.1.3.3.3h.7c.1 0 .3-.2.3-.3m0-9.4v-1.2c0-.2-.1-.3-.3-.3h-.7c-.2 0-.3.1-.3.3v1.2c0 .2.1.3.3.3h.7c.2 0 .3-.1.3-.3zM304.3 141v-10.5c0-.2-.1-.3-.3-.3h-.8c-.2 0-.3.1-.3.3V141c0 .2.1.3.3.3h.8c.2 0 .3-.2.3-.3M307.9 141v-7.5c0-.2-.1-.3-.3-.3h-.7c-.2 0-.3.1-.3.3v7.5c0 .2.1.3.3.3h.7c.2 0 .3-.2.3-.3m0-9.4v-1.2c0-.2-.1-.3-.3-.3h-.7c-.2 0-.3.1-.3.3v1.2c0 .2.1.3.3.3h.7c.2 0 .3-.1.3-.3zM314.7 140.1c-.5 0-1.2.1-1.7.1-1.5 0-1.9-.9-1.9-2.5v-1.1c0-1.6.5-2.5 1.9-2.5.5 0 1.2 0 1.7.1v5.9zm1.3.7v-10.3c0-.2-.1-.3-.3-.3h-.7c-.2 0-.3.1-.3.3v2.7c-.6-.1-1.3-.1-1.7-.1-2.1 0-3.2 1.3-3.2 3.6v1.1c0 2.2 1 3.6 3.2 3.6.9 0 1.8-.1 2.7-.2.3-.1.3-.2.3-.4zM322.7 140.1c-.4.1-1.1.1-1.7.1-1.5 0-1.9-1-1.9-2.5v-1c0-1.6.5-2.5 1.9-2.5.6 0 1.3.1 1.7.1v5.8zm1.3.6v-6.9c0-.2 0-.3-.3-.3-.8-.2-1.8-.3-2.7-.3-2.2 0-3.2 1.4-3.2 3.6v1c0 2.2 1 3.6 3.2 3.6.9 0 1.9-.1 2.7-.3.2-.1.3-.2.3-.4zM330.6 140.1c-.5 0-1.2.1-1.7.1-1.5 0-1.9-.9-1.9-2.5v-1.1c0-1.6.5-2.5 1.9-2.5.5 0 1.2 0 1.7.1v5.9zm1.3.7v-10.3c0-.2-.1-.3-.3-.3h-.7c-.2 0-.3.1-.3.3v2.7c-.6-.1-1.3-.1-1.7-.1-2.1 0-3.2 1.3-3.2 3.6v1.1c0 2.2 1 3.6 3.2 3.6.9 0 1.8-.1 2.7-.2.3-.1.3-.2.3-.4zM338.8 136.6h-3.9v-.1c0-1.5.7-2.4 2-2.4 1.3.1 1.9.9 1.9 2.5zm1.3.7v-.6c0-2.1-1.1-3.6-3.2-3.6s-3.3 1.5-3.3 3.6v1c0 2.8 1.7 3.6 3.4 3.6 1 0 1.7-.1 2.5-.2.2 0 .3-.1.3-.3v-.5c0-.1-.1-.2-.2-.2h-.1c-.7.1-1.7.2-2.5.2-1.4 0-2.1-.8-2.1-2.5v-.2h4.9c.2 0 .3-.1.3-.3zM233.3 132.5v-.5c0-.2-.1-.3-.3-.3h-2.9c-.2 0-.3.1-.3.3v.6c0 .2.1.2.3.2h2.9c.2 0 .3-.1.3-.3" fill="#58595b"/><path d="M26.5 31l-2.5-.2c-6.5-.6-11.3-7.7-10.6-15.7l60.4 5.4c9.5.9 17.1 7.7 19.4 16.5l-66.7-6z" fill-rule="evenodd" clip-rule="evenodd" fill="#bbbcbf"/><path d="M93.2 51.7l-56.1-5c-6.5-.6-11.3-7.6-10.6-15.7l66.7 6c.6 2.4.8 4.9.6 7.4l-.6 7.3z" fill-rule="evenodd" clip-rule="evenodd" fill="#a6a8ab"/><path d="M50.4 62.7C43.9 62.1 39.1 55 39.8 47l53.4 4.7-1.3 14.7-41.5-3.7z" fill-rule="evenodd" clip-rule="evenodd" fill="#929497"/><path d="M175.4 61.5c-13 37-76.9 79.9-76.9 79.9S76 65.8 88.2 30.9c8.5-24 34.8-36.7 58.9-28.3 24.1 8.4 36.8 34.8 28.3 58.9" fill-rule="evenodd" clip-rule="evenodd" fill="#7961a9"/><path d="M98.5 141.4s0-.1-.1-.4c0-.1 0-.1-.1-.2L146.8 2.5l.3.1c24.1 8.4 36.8 34.8 28.3 58.9-12.9 37-76.9 79.9-76.9 79.9" opacity=".5" fill-rule="evenodd" clip-rule="evenodd" fill="#afa2ce"/><path d="M18.3 67.9l-2.4.8C9.7 70.8 2.5 66.2 0 58.5l57.6-18.9c9.1-3 18.8.3 24.3 7.5L18.3 67.9z" fill-rule="evenodd" clip-rule="evenodd" fill="#bbbcbf"/><path d="M87.8 60.6L34.3 78.2c-6.2 2-13.4-2.6-15.9-10.3L82 47.1c1.5 1.9 2.7 4.1 3.5 6.6l2.3 6.9z" fill-rule="evenodd" clip-rule="evenodd" fill="#a6a8ab"/><path d="M52.8 87.6c-6.2 2-13.4-2.6-15.9-10.3l50.9-16.7 4.6 14-39.6 13z" fill-rule="evenodd" clip-rule="evenodd" fill="#929497"/><path d="M167.2 46.2c0 19.5-15.8 35.4-35.4 35.4-19.5 0-35.4-15.8-35.4-35.4 0-19.5 15.8-35.4 35.4-35.4 19.6 0 35.4 15.9 35.4 35.4" fill-rule="evenodd" clip-rule="evenodd" fill="#fff"/><path fill="#f05a22" d="M146 26.5l7 9-7 9.1h6.7l6.9-9.1-6.9-9z"/><path d="M150 32.4c-2.5 0-11.8.7-18.1 10-6.2 9.3-9.1 12-16.8 12v5.9c11.2 0 15.7-5.5 21.7-14.6 5.2-7.8 13.3-7.4 13.4-7.4h4.9v-5.9H150" fill="#f05a22"/><path d="M112.5 49c-4.7 0-8.5 3.8-8.5 8.5s3.8 8.5 8.5 8.5 8.5-3.8 8.5-8.5-3.8-8.5-8.5-8.5m0 11c-1.4 0-2.5-1.1-2.5-2.5s1.1-2.5 2.5-2.5 2.5 1.1 2.5 2.5c.1 1.4-1.1 2.5-2.5 2.5zM288.2 122h-10.9V99.1h-13.6V122h-10.9V83c0-5.7 1.5-10.1 4.6-13.1 3-3 7.5-4.5 13.1-4.5 5.7 0 10.1 1.5 13.2 4.6 3 3 4.5 7.4 4.5 13v39zm-24.5-32.5h13.6v-5.1c0-1.5-.1-2.9-.4-4.1-.2-1.1-.6-2.1-1.1-2.9-.5-.7-1.1-1.3-2-1.7-.8-.4-2-.6-3.4-.6s-2.5.2-3.4.6c-.8.4-1.5 1-2 1.7-.5.8-.9 1.8-1.1 2.9-.2 1.3-.4 2.7-.4 4.1v5.1z" fill="#f05a22"/><path d="M303 63.1h15.9v50.5h-16.1c-2 0-3.9-.2-5.7-.7-1.9-.5-3.6-1.3-5-2.4-1.5-1.1-2.7-2.6-3.5-4.3-.9-1.7-1.3-3.8-1.3-6 0-1.5.2-3 .7-4.3.5-1.3 1.1-2.5 2-3.6.6-.8 1.4-1.5 2.2-2.1-1.3-.7-2.5-1.7-3.5-2.8-2.1-2.5-3.2-5.5-3.2-9.1 0-2.5.5-4.8 1.5-6.7 1-1.9 2.3-3.5 4-4.7 1.6-1.2 3.5-2.2 5.6-2.8 2-.7 4.2-1 6.4-1m5.9 8.8h-5c-1.2 0-2.4.1-3.5.4-1 .3-1.9.7-2.7 1.2-.7.5-1.3 1.2-1.7 2.1-.4.8-.6 1.9-.6 3.1 0 1.2.2 2.2.6 3 .4.8.9 1.5 1.6 2 .7.5 1.6 1 2.6 1.2 1.1.3 2.2.4 3.5.4h5.3V71.9zm0 21.3h-4.8c-1 0-2 .1-3 .4-.9.3-1.6.6-2.3 1.1-.6.5-1.1 1.1-1.5 1.8-.4.7-.5 1.6-.5 2.5 0 2 .6 3.4 1.8 4.3 1.4 1 3.2 1.5 5.4 1.5h4.8V93.2zM252.9 112.8h-5.6c-18.3 0-27.2-8.9-27.2-27.2V62.8h9.6v22.8c0 12.9 4.6 17.5 17.5 17.5h5.6v9.7zM330.7 26.1c-1.3 0-2.6-.4-3.6-1.3-1.1-.9-1.8-2.2-1.8-3.7s.6-2.8 1.8-3.7c1.1-.9 2.3-1.3 3.6-1.3 1.3 0 2.5.4 3.6 1.3 1.2.9 1.8 2.2 1.8 3.7s-.6 2.8-1.8 3.7c-1.1.8-2.3 1.3-3.6 1.3" fill="#f05a22"/><path d="M251.5 65h-9.6V31.9c0-1.3-.1-2.5-.3-3.7-.2-1-.5-1.8-1-2.5-.4-.6-1-1.1-1.7-1.5-.7-.4-1.7-.6-3-.6-1.2 0-2.2.2-3 .6-.7.4-1.3.9-1.7 1.5-.5.7-.8 1.5-1 2.5-.2 1.1-.3 2.4-.3 3.7V65h-9.6V31.9c0-1.3-.1-2.5-.3-3.7-.2-1-.5-1.8-1-2.5-.4-.6-1-1.1-1.7-1.5-.7-.4-1.7-.6-3-.6-1.2 0-2.2.2-3 .6-.7.4-1.3.9-1.7 1.5-.5.7-.8 1.5-1 2.5-.2 1.1-.3 2.4-.3 3.7V65h-9.6V30.6c0-5 1.4-8.9 4.1-11.5 2.7-2.6 6.6-4 11.6-4 2.8 0 5.3.5 7.4 1.5 1.3.6 2.5 1.5 3.4 2.6.9-1.1 2.1-1.9 3.4-2.6 2.1-1 4.6-1.5 7.4-1.5 5 0 8.9 1.3 11.6 4 2.7 2.6 4.1 6.5 4.1 11.5V65z" fill="#f05a22"/><path d="M272.9 66.1c-3.6 0-7-.7-9.8-2.1-2.9-1.4-5.3-3.2-7.3-5.6-2-2.3-3.5-5.1-4.5-8.1s-1.5-6.3-1.5-9.7c0-3.4.5-6.7 1.5-9.7 1-3.1 2.5-5.8 4.5-8.1s4.5-4.2 7.3-5.6c2.9-1.4 6.2-2.1 9.8-2.1 3.7 0 7 .7 9.9 2.1 2.9 1.4 5.3 3.2 7.3 5.6 2 2.3 3.5 5.1 4.5 8.1 1 3.1 1.5 6.3 1.5 9.7 0 3.4-.5 6.7-1.5 9.7-1 3.1-2.5 5.8-4.5 8.1s-4.4 4.2-7.3 5.6c-2.9 1.4-6.3 2.1-9.9 2.1m0-42.4c-2.3 0-4.3.5-6 1.3-1.7.9-3.1 2.1-4.2 3.6-1.1 1.6-2 3.4-2.5 5.4-.6 2.1-.9 4.2-.9 6.4s.3 4.4.9 6.4c.6 2 1.4 3.8 2.5 5.4 1.1 1.5 2.5 2.7 4.2 3.7 1.7.9 3.7 1.3 6 1.3s4.3-.5 6-1.3c1.7-.9 3.1-2.1 4.2-3.7s2-3.4 2.6-5.4c.6-2.1.9-4.2.9-6.4s-.3-4.4-.9-6.4c-.6-2-1.4-3.8-2.6-5.4-1.1-1.5-2.5-2.8-4.2-3.7-1.7-.7-3.7-1.2-6-1.2z" fill="#f05a22"/><path d="M310.1 65h-15.4V16.2h15.6c1.9 0 3.8.2 5.5.7 1.8.5 3.5 1.3 4.9 2.3 1.4 1.1 2.6 2.5 3.4 4.2.8 1.7 1.3 3.6 1.3 5.8 0 1.5-.2 2.9-.7 4.1-.5 1.3-1.1 2.4-1.9 3.4-.6.7-1.3 1.4-2.1 2 1.3.7 2.4 1.6 3.4 2.8 2 2.4 3.1 5.3 3.1 8.8 0 2.5-.5 4.7-1.5 6.5-1 1.8-2.3 3.4-3.9 4.6-1.6 1.2-3.4 2.1-5.4 2.7-2.1.6-4.2.9-6.3.9m-5.8-8.5h4.8c1.2 0 2.3-.1 3.4-.4 1-.2 1.9-.7 2.6-1.2.7-.5 1.2-1.2 1.7-2 .4-.8.6-1.8.6-3 0-1.1-.2-2.1-.6-2.9-.4-.8-.9-1.4-1.5-1.9-.7-.5-1.5-.9-2.5-1.2-1-.3-2.2-.4-3.4-.4h-5.1v13zm0-20.6h4.6c1 0 2-.1 2.9-.4.8-.2 1.6-.6 2.2-1.1.6-.5 1.1-1 1.4-1.7.3-.7.5-1.5.5-2.5 0-1.9-.6-3.3-1.8-4.1-1.4-1-3.1-1.5-5.2-1.5h-4.6v11.3z" fill="#f05a22"/><path d="M340.2 55.7c-3.6-2.5-5-7-5-14.1V31H326v10.7c0 13 4.7 21 14.2 24.2V55.7z" fill="#f05a22"/></svg>